<svg width="41" height="47" viewBox="0 0 41 47" fill="none" xmlns="http://www.w3.org/2000/svg">
<path d="M17 8V0.5H20V8H17ZM7.65 10.65L2.1 5.05L4.2 2.9L9.8 8.5L7.65 10.65ZM7 35.8H13C13.4333 35.8 13.7917 35.6554 14.075 35.3663C14.3583 35.0771 14.5 34.7187 14.5 34.2913C14.5 33.8638 14.3563 33.5083 14.0688 33.225C13.7812 32.9417 13.425 32.8 13 32.8H7V35.8ZM24 35.8H30V32.8H24C23.5667 32.8 23.2083 32.9446 22.925 33.2337C22.6417 33.5229 22.5 33.8813 22.5 34.3088C22.5 34.7363 22.6437 35.0917 22.9312 35.375C23.2188 35.6583 23.575 35.8 24 35.8ZM29.4 23L36.45 15.9L35.05 14.5L29.4 20.2L26.45 17.2L25.05 18.65L29.4 23ZM30.75 28.45C28.0663 28.45 25.7788 27.5043 23.8873 25.6128C21.9958 23.7213 21.05 21.4337 21.05 18.75C21.05 16.0663 21.9958 13.7788 23.8873 11.8872C25.7788 9.99575 28.0663 9.05 30.75 9.05C33.4337 9.05 35.7213 9.99575 37.6128 11.8872C39.5042 13.7788 40.45 16.0663 40.45 18.75C40.45 21.4337 39.5042 23.7213 37.6128 25.6128C35.7213 27.5043 33.4337 28.45 30.75 28.45ZM2 46.5C1.575 46.5 1.21875 46.3563 0.93125 46.0688C0.64375 45.7813 0.5 45.425 0.5 45V28.8L4.7 16.5674C4.9 15.9558 5.25833 15.4583 5.775 15.075C6.29167 14.6917 6.88333 14.5 7.55 14.5H13.25V10.75H20.9C20.1333 11.7167 19.5083 12.7667 19.025 13.9C18.5417 15.0333 18.2333 16.2333 18.1 17.5H7.4L4.4 26.3H20.55C21.7378 27.9308 23.2225 29.1969 25.0042 30.0981C26.7858 30.9994 28.7011 31.45 30.75 31.45C31.75 31.45 32.7333 31.3333 33.7 31.1C34.6667 30.8667 35.6 30.5167 36.5 30.05V45C36.5 45.425 36.3563 45.7813 36.0688 46.0688C35.7813 46.3563 35.425 46.5 35 46.5H33.95C33.525 46.5 33.1688 46.3563 32.8813 46.0688C32.5938 45.7813 32.45 45.425 32.45 45V42.3H4.5V45C4.5 45.425 4.35625 45.7813 4.06875 46.0688C3.78125 46.3563 3.425 46.5 3 46.5H2Z" fill="#FBFBFF"/>
</svg>
