<svg width="24" height="25" viewBox="0 0 24 25" fill="none" xmlns="http://www.w3.org/2000/svg">
<g opacity="0.5">
<mask id="mask0_442_2381" style="mask-type:alpha" maskUnits="userSpaceOnUse" x="0" y="0" width="24" height="25">
<rect y="0.5" width="24" height="24" fill="#D9D9D9"/>
</mask>
<g mask="url(#mask0_442_2381)">
<path d="M11 4.5V0.5H13V4.5H11ZM6.575 5.925L3.575 2.925L5 1.5L8 4.5L6.575 5.925ZM6 18.5H9C9.28333 18.5 9.52083 18.4042 9.7125 18.2125C9.90417 18.0208 10 17.7833 10 17.5C10 17.2167 9.90417 16.9792 9.7125 16.7875C9.52083 16.5958 9.28333 16.5 9 16.5H6V18.5ZM15 18.5H18V16.5H15C14.7167 16.5 14.4792 16.5958 14.2875 16.7875C14.0958 16.9792 14 17.2167 14 17.5C14 17.7833 14.0958 18.0208 14.2875 18.2125C14.4792 18.4042 14.7167 18.5 15 18.5ZM17.275 11.75L20.75 8.3L19.7 7.25L17.275 9.625L16.3 8.65L15.25 9.725L17.275 11.75ZM18 14.5C16.6167 14.5 15.4375 14.0125 14.4625 13.0375C13.4875 12.0625 13 10.8833 13 9.5C13 8.11667 13.4875 6.9375 14.4625 5.9625C15.4375 4.9875 16.6167 4.5 18 4.5C19.3833 4.5 20.5625 4.9875 21.5375 5.9625C22.5125 6.9375 23 8.11667 23 9.5C23 10.8833 22.5125 12.0625 21.5375 13.0375C20.5625 14.0125 19.3833 14.5 18 14.5ZM4 23.5C3.71667 23.5 3.47917 23.4042 3.2875 23.2125C3.09583 23.0208 3 22.7833 3 22.5V14.5L5.1 8.5C5.2 8.2 5.37917 7.95833 5.6375 7.775C5.89583 7.59167 6.18333 7.5 6.5 7.5H9V5.5H12.275C11.875 6.06667 11.5625 6.6875 11.3375 7.3625C11.1125 8.0375 11 8.75 11 9.5H6.85L5.375 13.5H12.275C12.9417 14.45 13.775 15.1875 14.775 15.7125C15.775 16.2375 16.85 16.5 18 16.5C18.5333 16.5 19.0458 16.4458 19.5375 16.3375C20.0292 16.2292 20.5167 16.0583 21 15.825V22.5C21 22.7833 20.9042 23.0208 20.7125 23.2125C20.5208 23.4042 20.2833 23.5 20 23.5H19C18.7167 23.5 18.4792 23.4042 18.2875 23.2125C18.0958 23.0208 18 22.7833 18 22.5V21.5H6V22.5C6 22.7833 5.90417 23.0208 5.7125 23.2125C5.52083 23.4042 5.28333 23.5 5 23.5H4Z" fill="#0D0106"/>
</g>
</g>
</svg>
