<svg width="278" height="230" viewBox="0 0 278 230" fill="none" xmlns="http://www.w3.org/2000/svg">
<path d="M88 112L84 125H96L92 112H88Z" fill="#FF5714"/>
<mask id="mask0_251_1776" style="mask-type:alpha" maskUnits="userSpaceOnUse" x="65" y="92" width="40" height="40">
<rect x="65" y="92" width="40" height="40" fill="#D9D9D9"/>
</mask>
<g mask="url(#mask0_251_1776)">
<path d="M73.611 125.333V122.556H76.1943L79.6248 111.208C79.81 110.616 80.1457 110.137 80.6318 109.771C81.1179 109.405 81.6665 109.222 82.2776 109.222H87.722C88.3332 109.222 88.8818 109.405 89.3679 109.771C89.854 110.137 90.1896 110.616 90.3748 111.208L93.8054 122.556H96.3887V125.333H73.611ZM79.1387 122.556H90.861L87.6943 112H82.3054L79.1387 122.556ZM83.611 104.778V97H86.3887V104.778H83.611ZM93.4443 108.875L91.4582 106.889L96.986 101.403L98.9304 103.347L93.4443 108.875ZM95.5554 116.722V113.944H103.333V116.722H95.5554ZM76.5554 108.875L71.0693 103.347L73.0137 101.403L78.5415 106.889L76.5554 108.875ZM66.6665 116.722V113.944H74.4443V116.722H66.6665Z" fill="#0D0106"/>
</g>
<path d="M127.448 116.888C127.448 118.893 126.712 120.504 125.24 121.72C123.747 122.915 121.933 123.512 119.8 123.512C117.901 123.512 116.227 122.957 114.776 121.848C113.325 120.739 112.323 119.224 111.768 117.304L114.584 116.152C114.776 116.835 115.043 117.453 115.384 118.008C115.725 118.563 116.12 119.043 116.568 119.448C117.037 119.832 117.549 120.141 118.104 120.376C118.659 120.589 119.245 120.696 119.864 120.696C121.208 120.696 122.307 120.355 123.16 119.672C124.013 118.968 124.44 118.04 124.44 116.888C124.44 115.928 124.088 115.107 123.384 114.424C122.723 113.763 121.485 113.123 119.672 112.504C117.837 111.843 116.696 111.395 116.248 111.16C113.816 109.923 112.6 108.099 112.6 105.688C112.6 104.003 113.272 102.563 114.616 101.368C115.981 100.173 117.656 99.576 119.64 99.576C121.389 99.576 122.904 100.024 124.184 100.92C125.464 101.795 126.317 102.893 126.744 104.216L123.992 105.368C123.736 104.515 123.224 103.811 122.456 103.256C121.709 102.68 120.792 102.392 119.704 102.392C118.552 102.392 117.581 102.712 116.792 103.352C116.003 103.949 115.608 104.728 115.608 105.688C115.608 106.477 115.917 107.16 116.536 107.736C117.219 108.312 118.701 108.995 120.984 109.784C123.309 110.573 124.963 111.544 125.944 112.696C126.947 113.827 127.448 115.224 127.448 116.888ZM134.288 101.912C134.288 102.488 134.085 102.979 133.68 103.384C133.274 103.789 132.784 103.992 132.208 103.992C131.632 103.992 131.141 103.789 130.736 103.384C130.33 102.979 130.128 102.488 130.128 101.912C130.128 101.336 130.33 100.845 130.736 100.44C131.141 100.035 131.632 99.832 132.208 99.832C132.784 99.832 133.274 100.035 133.68 100.44C134.085 100.845 134.288 101.336 134.288 101.912ZM133.68 107.32V123H130.736V107.32H133.68ZM147.998 102.904V110.968H152.734C153.929 110.968 154.942 110.584 155.774 109.816C156.606 109.027 157.022 108.056 157.022 106.904C157.022 105.837 156.627 104.909 155.838 104.12C155.07 103.309 154.099 102.904 152.926 102.904H147.998ZM147.998 123H145.054V100.088H152.862C154.846 100.088 156.531 100.749 157.918 102.072C159.326 103.373 160.03 104.984 160.03 106.904C160.03 108.483 159.507 109.891 158.462 111.128C157.438 112.344 156.137 113.123 154.558 113.464L154.494 113.56L160.926 122.872V123H157.438L151.262 113.72H147.998V123ZM169.77 123.512C167.466 123.512 165.567 122.723 164.074 121.144C162.58 119.565 161.834 117.571 161.834 115.16C161.834 112.771 162.559 110.787 164.01 109.208C165.46 107.608 167.316 106.808 169.578 106.808C171.903 106.808 173.748 107.565 175.114 109.08C176.5 110.573 177.194 112.675 177.194 115.384L177.162 115.704H164.842C164.884 117.24 165.396 118.477 166.378 119.416C167.359 120.355 168.532 120.824 169.898 120.824C171.775 120.824 173.247 119.885 174.314 118.008L176.938 119.288C176.234 120.611 175.252 121.645 173.994 122.392C172.756 123.139 171.348 123.512 169.77 123.512ZM165.066 113.272H174.058C173.972 112.184 173.524 111.288 172.714 110.584C171.924 109.859 170.858 109.496 169.514 109.496C168.404 109.496 167.444 109.837 166.634 110.52C165.844 111.203 165.322 112.12 165.066 113.272ZM179.886 107.32H182.702V109.496H182.83C183.278 108.728 183.96 108.088 184.878 107.576C185.816 107.064 186.787 106.808 187.79 106.808C189.71 106.808 191.182 107.363 192.206 108.472C193.251 109.56 193.774 111.117 193.774 113.144V123H190.83V113.336C190.766 110.776 189.475 109.496 186.958 109.496C185.784 109.496 184.803 109.976 184.014 110.936C183.224 111.875 182.83 113.005 182.83 114.328V123H179.886V107.32ZM204.27 123.512C201.966 123.512 200.067 122.723 198.574 121.144C197.08 119.565 196.334 117.571 196.334 115.16C196.334 112.771 197.059 110.787 198.51 109.208C199.96 107.608 201.816 106.808 204.078 106.808C206.403 106.808 208.248 107.565 209.614 109.08C211 110.573 211.694 112.675 211.694 115.384L211.662 115.704H199.342C199.384 117.24 199.896 118.477 200.878 119.416C201.859 120.355 203.032 120.824 204.398 120.824C206.275 120.824 207.747 119.885 208.814 118.008L211.438 119.288C210.734 120.611 209.752 121.645 208.494 122.392C207.256 123.139 205.848 123.512 204.27 123.512ZM199.566 113.272H208.558C208.472 112.184 208.024 111.288 207.214 110.584C206.424 109.859 205.358 109.496 204.014 109.496C202.904 109.496 201.944 109.837 201.134 110.52C200.344 111.203 199.822 112.12 199.566 113.272Z" fill="#0D0106"/>
<g opacity="0.5">
<mask id="mask1_251_1776" style="mask-type:alpha" maskUnits="userSpaceOnUse" x="73" y="162" width="24" height="24">
<rect x="73" y="162" width="24" height="24" fill="#D9D9D9"/>
</mask>
<g mask="url(#mask1_251_1776)">
<path d="M83.5 177.5H86.5V175H89V172H86.5V169.5H83.5V172H81V175H83.5V177.5ZM85 184C82.6833 183.417 80.7708 182.088 79.2625 180.013C77.7542 177.938 77 175.633 77 173.1V167L85 164L93 167V173.1C93 175.633 92.2458 177.938 90.7375 180.013C89.2292 182.088 87.3167 183.417 85 184Z" fill="#0D0106"/>
</g>
</g>
<g opacity="0.5">
<mask id="mask2_251_1776" style="mask-type:alpha" maskUnits="userSpaceOnUse" x="43" y="57" width="24" height="24">
<rect x="43" y="57" width="24" height="24" fill="#D9D9D9"/>
</mask>
<g mask="url(#mask2_251_1776)">
<path d="M54 61V57H56V61H54ZM49.575 62.425L46.575 59.425L48 58L51 61L49.575 62.425ZM49 75H52C52.2833 75 52.5208 74.9042 52.7125 74.7125C52.9042 74.5208 53 74.2833 53 74C53 73.7167 52.9042 73.4792 52.7125 73.2875C52.5208 73.0958 52.2833 73 52 73H49V75ZM58 75H61V73H58C57.7167 73 57.4792 73.0958 57.2875 73.2875C57.0958 73.4792 57 73.7167 57 74C57 74.2833 57.0958 74.5208 57.2875 74.7125C57.4792 74.9042 57.7167 75 58 75ZM60.275 68.25L63.75 64.8L62.7 63.75L60.275 66.125L59.3 65.15L58.25 66.225L60.275 68.25ZM61 71C59.6167 71 58.4375 70.5125 57.4625 69.5375C56.4875 68.5625 56 67.3833 56 66C56 64.6167 56.4875 63.4375 57.4625 62.4625C58.4375 61.4875 59.6167 61 61 61C62.3833 61 63.5625 61.4875 64.5375 62.4625C65.5125 63.4375 66 64.6167 66 66C66 67.3833 65.5125 68.5625 64.5375 69.5375C63.5625 70.5125 62.3833 71 61 71ZM47 80C46.7167 80 46.4792 79.9042 46.2875 79.7125C46.0958 79.5208 46 79.2833 46 79V71L48.1 65C48.2 64.7 48.3792 64.4583 48.6375 64.275C48.8958 64.0917 49.1833 64 49.5 64H52V62H55.275C54.875 62.5667 54.5625 63.1875 54.3375 63.8625C54.1125 64.5375 54 65.25 54 66H49.85L48.375 70H55.275C55.9417 70.95 56.775 71.6875 57.775 72.2125C58.775 72.7375 59.85 73 61 73C61.5333 73 62.0458 72.9458 62.5375 72.8375C63.0292 72.7292 63.5167 72.5583 64 72.325V79C64 79.2833 63.9042 79.5208 63.7125 79.7125C63.5208 79.9042 63.2833 80 63 80H62C61.7167 80 61.4792 79.9042 61.2875 79.7125C61.0958 79.5208 61 79.2833 61 79V78H49V79C49 79.2833 48.9042 79.5208 48.7125 79.7125C48.5208 79.9042 48.2833 80 48 80H47Z" fill="#0D0106"/>
</g>
</g>
<g opacity="0.5">
<mask id="mask3_251_1776" style="mask-type:alpha" maskUnits="userSpaceOnUse" x="221" y="51" width="24" height="24">
<rect x="221" y="51" width="24" height="24" fill="#D9D9D9"/>
</mask>
<g mask="url(#mask3_251_1776)">
<path d="M230.2 66.6L233 64.5L235.75 66.6L234.7 63.2L237.5 61H234.1L233 57.6L231.9 61H228.5L231.25 63.2L230.2 66.6ZM233 73C230.683 72.4167 228.771 71.0875 227.263 69.0125C225.754 66.9375 225 64.6333 225 62.1V56L233 53L241 56V62.1C241 64.6333 240.246 66.9375 238.738 69.0125C237.229 71.0875 235.317 72.4167 233 73Z" fill="#0D0106"/>
</g>
</g>
<g opacity="0.5">
<mask id="mask4_251_1776" style="mask-type:alpha" maskUnits="userSpaceOnUse" x="189" y="162" width="24" height="24">
<rect x="189" y="162" width="24" height="24" fill="#D9D9D9"/>
</mask>
<g mask="url(#mask4_251_1776)">
<path d="M193 176C193 174.25 193.417 172.692 194.25 171.325C195.083 169.958 196 168.808 197 167.875C198 166.942 198.917 166.229 199.75 165.738L201 165V168.3C201 168.917 201.208 169.404 201.625 169.763C202.042 170.121 202.508 170.3 203.025 170.3C203.308 170.3 203.579 170.242 203.838 170.125C204.096 170.008 204.333 169.817 204.55 169.55L205 169C206.2 169.7 207.167 170.671 207.9 171.912C208.633 173.154 209 174.517 209 176C209 177.467 208.642 178.804 207.925 180.012C207.208 181.221 206.267 182.175 205.1 182.875C205.383 182.475 205.604 182.038 205.762 181.562C205.921 181.087 206 180.583 206 180.05C206 179.383 205.875 178.754 205.625 178.163C205.375 177.571 205.017 177.042 204.55 176.575L201 173.1L197.475 176.575C196.992 177.058 196.625 177.592 196.375 178.175C196.125 178.758 196 179.383 196 180.05C196 180.583 196.079 181.087 196.237 181.562C196.396 182.038 196.617 182.475 196.9 182.875C195.733 182.175 194.792 181.221 194.075 180.012C193.358 178.804 193 177.467 193 176ZM201 175.9L203.125 177.975C203.408 178.258 203.625 178.575 203.775 178.925C203.925 179.275 204 179.65 204 180.05C204 180.867 203.708 181.562 203.125 182.138C202.542 182.713 201.833 183 201 183C200.167 183 199.458 182.713 198.875 182.138C198.292 181.562 198 180.867 198 180.05C198 179.667 198.075 179.296 198.225 178.938C198.375 178.579 198.592 178.258 198.875 177.975L201 175.9Z" fill="#0D0106"/>
</g>
</g>
<circle opacity="0.3" cx="4.5" cy="87.5" r="4.5" fill="#0D0106"/>
<circle opacity="0.3" cx="122.5" cy="67.5" r="4.5" fill="#0D0106"/>
<circle opacity="0.3" cx="157.5" cy="152.5" r="4.5" fill="#0D0106"/>
<circle opacity="0.3" cx="104.5" cy="216.5" r="4.5" fill="#0D0106"/>
<circle opacity="0.3" cx="270.5" cy="85.5" r="4.5" fill="#0D0106"/>
<circle opacity="0.3" cx="267.5" cy="45.5" r="1.5" fill="#0D0106"/>
<circle opacity="0.3" cx="170.5" cy="76.5" r="1.5" fill="#0D0106"/>
<circle opacity="0.3" cx="68.5" cy="17.5" r="1.5" fill="#0D0106"/>
<circle opacity="0.3" cx="18.5" cy="58.5" r="1.5" fill="#0D0106"/>
<circle opacity="0.3" cx="104.5" cy="142.5" r="1.5" fill="#0D0106"/>
<circle opacity="0.3" cx="243.5" cy="228.5" r="1.5" fill="#0D0106"/>
<circle opacity="0.3" cx="178.5" cy="136.5" r="1.5" fill="#0D0106"/>
<circle opacity="0.3" cx="219.5" cy="102.5" r="1.5" fill="#0D0106"/>
<circle opacity="0.3" cx="152.5" cy="207.5" r="1.5" fill="#0D0106"/>
<circle opacity="0.3" cx="44.5" cy="175.5" r="1.5" fill="#0D0106"/>
<circle opacity="0.3" cx="1.5" cy="210.5" r="1.5" fill="#0D0106"/>
<circle opacity="0.3" cx="276.5" cy="163.5" r="1.5" fill="#0D0106"/>
<circle opacity="0.3" cx="144.5" cy="1.5" r="1.5" fill="#0D0106"/>
<g opacity="0.5">
<mask id="mask5_251_1776" style="mask-type:alpha" maskUnits="userSpaceOnUse" x="14" y="126" width="24" height="24">
<rect x="14" y="126" width="24" height="24" fill="#D9D9D9"/>
</mask>
<g mask="url(#mask5_251_1776)">
<path d="M21 147C20.1667 147 19.4583 146.708 18.875 146.125C18.2917 145.542 18 144.833 18 144H17C16.45 144 15.9792 143.804 15.5875 143.413C15.1958 143.021 15 142.55 15 142V137H26V133C26 132.45 26.1958 131.979 26.5875 131.588C26.9792 131.196 27.45 131 28 131H30V130C30 129.717 30.0958 129.479 30.2875 129.287C30.4792 129.096 30.7167 129 31 129H32C32.2833 129 32.5208 129.096 32.7125 129.287C32.9042 129.479 33 129.717 33 130V131H33.55C33.9833 131 34.375 131.125 34.725 131.375C35.075 131.625 35.3167 131.958 35.45 132.375L36.9 136.675C36.9333 136.775 36.9583 136.879 36.975 136.988C36.9917 137.096 37 137.208 37 137.325V144H34C34 144.833 33.7083 145.542 33.125 146.125C32.5417 146.708 31.8333 147 31 147C30.1667 147 29.4583 146.708 28.875 146.125C28.2917 145.542 28 144.833 28 144H24C24 144.833 23.7083 145.542 23.125 146.125C22.5417 146.708 21.8333 147 21 147ZM21 145C21.2833 145 21.5208 144.904 21.7125 144.713C21.9042 144.521 22 144.283 22 144C22 143.717 21.9042 143.479 21.7125 143.288C21.5208 143.096 21.2833 143 21 143C20.7167 143 20.4792 143.096 20.2875 143.288C20.0958 143.479 20 143.717 20 144C20 144.283 20.0958 144.521 20.2875 144.713C20.4792 144.904 20.7167 145 21 145ZM31 145C31.2833 145 31.5208 144.904 31.7125 144.713C31.9042 144.521 32 144.283 32 144C32 143.717 31.9042 143.479 31.7125 143.288C31.5208 143.096 31.2833 143 31 143C30.7167 143 30.4792 143.096 30.2875 143.288C30.0958 143.479 30 143.717 30 144C30 144.283 30.0958 144.521 30.2875 144.713C30.4792 144.904 30.7167 145 31 145ZM28 137H34.9L33.55 133H28V137ZM15 136V134.5H16V132.5H15V131H25V132.5H24V134.5H25V136H15ZM17.5 134.5H19.25V132.5H17.5V134.5ZM20.75 134.5H22.5V132.5H20.75V134.5Z" fill="#0D0106"/>
</g>
</g>
<mask id="mask6_251_1776" style="mask-type:alpha" maskUnits="userSpaceOnUse" x="243" y="181" width="12" height="12">
<rect x="243" y="181" width="12" height="12" fill="#D9D9D9"/>
</mask>
<g mask="url(#mask6_251_1776)">
<path d="M246.5 191.5C246.083 191.5 245.729 191.354 245.438 191.062C245.146 190.771 245 190.417 245 190H244.5C244.225 190 243.99 189.902 243.794 189.706C243.598 189.51 243.5 189.275 243.5 189V186.5H249V184.5C249 184.225 249.098 183.99 249.294 183.794C249.49 183.598 249.725 183.5 250 183.5H251V183C251 182.858 251.048 182.74 251.144 182.644C251.24 182.548 251.358 182.5 251.5 182.5H252C252.142 182.5 252.26 182.548 252.356 182.644C252.452 182.74 252.5 182.858 252.5 183V183.5H252.775C252.992 183.5 253.188 183.562 253.363 183.688C253.538 183.812 253.658 183.979 253.725 184.188L254.45 186.338C254.467 186.388 254.479 186.44 254.488 186.494C254.496 186.548 254.5 186.604 254.5 186.662V190H253C253 190.417 252.854 190.771 252.562 191.062C252.271 191.354 251.917 191.5 251.5 191.5C251.083 191.5 250.729 191.354 250.438 191.062C250.146 190.771 250 190.417 250 190H248C248 190.417 247.854 190.771 247.562 191.062C247.271 191.354 246.917 191.5 246.5 191.5ZM246.5 190.5C246.642 190.5 246.76 190.452 246.856 190.356C246.952 190.26 247 190.142 247 190C247 189.858 246.952 189.74 246.856 189.644C246.76 189.548 246.642 189.5 246.5 189.5C246.358 189.5 246.24 189.548 246.144 189.644C246.048 189.74 246 189.858 246 190C246 190.142 246.048 190.26 246.144 190.356C246.24 190.452 246.358 190.5 246.5 190.5ZM251.5 190.5C251.642 190.5 251.76 190.452 251.856 190.356C251.952 190.26 252 190.142 252 190C252 189.858 251.952 189.74 251.856 189.644C251.76 189.548 251.642 189.5 251.5 189.5C251.358 189.5 251.24 189.548 251.144 189.644C251.048 189.74 251 189.858 251 190C251 190.142 251.048 190.26 251.144 190.356C251.24 190.452 251.358 190.5 251.5 190.5ZM250 186.5H253.45L252.775 184.5H250V186.5ZM243.5 186V185.25H244V184.25H243.5V183.5H248.5V184.25H248V185.25H248.5V186H243.5ZM244.75 185.25H245.625V184.25H244.75V185.25ZM246.375 185.25H247.25V184.25H246.375V185.25Z" fill="#FF5714"/>
</g>
<mask id="mask7_251_1776" style="mask-type:alpha" maskUnits="userSpaceOnUse" x="221" y="10" width="12" height="12">
<rect x="221" y="10" width="12" height="12" fill="#D9D9D9"/>
</mask>
<g mask="url(#mask7_251_1776)">
<path d="M224.5 20.5C224.083 20.5 223.729 20.3542 223.438 20.0625C223.146 19.7708 223 19.4167 223 19H222.5C222.225 19 221.99 18.9021 221.794 18.7063C221.598 18.5104 221.5 18.275 221.5 18V15.5H227V13.5C227 13.225 227.098 12.9896 227.294 12.7938C227.49 12.5979 227.725 12.5 228 12.5H229V12C229 11.8583 229.048 11.7396 229.144 11.6437C229.24 11.5479 229.358 11.5 229.5 11.5H230C230.142 11.5 230.26 11.5479 230.356 11.6437C230.452 11.7396 230.5 11.8583 230.5 12V12.5H230.775C230.992 12.5 231.188 12.5625 231.363 12.6875C231.538 12.8125 231.658 12.9792 231.725 13.1875L232.45 15.3375C232.467 15.3875 232.479 15.4396 232.488 15.4938C232.496 15.5479 232.5 15.6042 232.5 15.6625V19H231C231 19.4167 230.854 19.7708 230.562 20.0625C230.271 20.3542 229.917 20.5 229.5 20.5C229.083 20.5 228.729 20.3542 228.438 20.0625C228.146 19.7708 228 19.4167 228 19H226C226 19.4167 225.854 19.7708 225.562 20.0625C225.271 20.3542 224.917 20.5 224.5 20.5ZM224.5 19.5C224.642 19.5 224.76 19.4521 224.856 19.3563C224.952 19.2604 225 19.1417 225 19C225 18.8583 224.952 18.7396 224.856 18.6438C224.76 18.5479 224.642 18.5 224.5 18.5C224.358 18.5 224.24 18.5479 224.144 18.6438C224.048 18.7396 224 18.8583 224 19C224 19.1417 224.048 19.2604 224.144 19.3563C224.24 19.4521 224.358 19.5 224.5 19.5ZM229.5 19.5C229.642 19.5 229.76 19.4521 229.856 19.3563C229.952 19.2604 230 19.1417 230 19C230 18.8583 229.952 18.7396 229.856 18.6438C229.76 18.5479 229.642 18.5 229.5 18.5C229.358 18.5 229.24 18.5479 229.144 18.6438C229.048 18.7396 229 18.8583 229 19C229 19.1417 229.048 19.2604 229.144 19.3563C229.24 19.4521 229.358 19.5 229.5 19.5ZM228 15.5H231.45L230.775 13.5H228V15.5ZM221.5 15V14.25H222V13.25H221.5V12.5H226.5V13.25H226V14.25H226.5V15H221.5ZM222.75 14.25H223.625V13.25H222.75V14.25ZM224.375 14.25H225.25V13.25H224.375V14.25Z" fill="#FF5714"/>
</g>
<g opacity="0.5">
<mask id="mask8_251_1776" style="mask-type:alpha" maskUnits="userSpaceOnUse" x="127" y="175" width="24" height="24">
<rect x="127" y="175" width="24" height="24" fill="#D9D9D9"/>
</mask>
<g mask="url(#mask8_251_1776)">
<path d="M135 197L136 190H131L140 177H142L141 185H147L137 197H135Z" fill="#0D0106"/>
</g>
</g>
<mask id="mask9_251_1776" style="mask-type:alpha" maskUnits="userSpaceOnUse" x="190" y="217" width="12" height="12">
<rect x="190" y="217" width="12" height="12" fill="#D9D9D9"/>
</mask>
<g mask="url(#mask9_251_1776)">
<path d="M194 228L194.5 224.5H192L196.5 218H197.5L197 222H200L195 228H194Z" fill="#FF5714"/>
</g>
<mask id="mask10_251_1776" style="mask-type:alpha" maskUnits="userSpaceOnUse" x="32" y="16" width="12" height="12">
<rect x="32" y="16" width="12" height="12" fill="#D9D9D9"/>
</mask>
<g mask="url(#mask10_251_1776)">
<path d="M36 27L36.5 23.5H34L38.5 17H39.5L39 21H42L37 27H36Z" fill="#FF5714"/>
</g>
<g opacity="0.5">
<mask id="mask11_251_1776" style="mask-type:alpha" maskUnits="userSpaceOnUse" x="237" y="126" width="24" height="24">
<rect x="237" y="126" width="24" height="24" fill="#D9D9D9"/>
</mask>
<g mask="url(#mask11_251_1776)">
<path d="M252 146C249.767 146 247.875 145.225 246.325 143.675C244.775 142.125 244 140.233 244 138C244 135.783 244.775 133.896 246.325 132.338C247.875 130.779 249.767 130 252 130C254.217 130 256.104 130.779 257.663 132.338C259.221 133.896 260 135.783 260 138C260 140.233 259.221 142.125 257.663 143.675C256.104 145.225 254.217 146 252 146ZM254.275 141.725L255.7 140.3L253 137.6V134H251V138.425L254.275 141.725ZM239 135V133H243V135H239ZM238 139V137H243V139H238ZM239 143V141H243V143H239Z" fill="#0D0106"/>
</g>
</g>
<g opacity="0.5">
<mask id="mask12_251_1776" style="mask-type:alpha" maskUnits="userSpaceOnUse" x="94" y="22" width="24" height="24">
<rect x="94" y="22" width="24" height="24" fill="#D9D9D9"/>
</mask>
<g mask="url(#mask12_251_1776)">
<path d="M105 36H107V33H110V31H107V28H105V31H102V33H105V36ZM106 44C103.317 41.7167 101.312 39.5958 99.9875 37.6375C98.6625 35.6792 98 33.8667 98 32.2C98 29.7 98.8042 27.7083 100.413 26.225C102.021 24.7417 103.883 24 106 24C108.117 24 109.979 24.7417 111.588 26.225C113.196 27.7083 114 29.7 114 32.2C114 33.8667 113.337 35.6792 112.012 37.6375C110.688 39.5958 108.683 41.7167 106 44Z" fill="#0D0106"/>
</g>
</g>
<g opacity="0.5">
<mask id="mask13_251_1776" style="mask-type:alpha" maskUnits="userSpaceOnUse" x="160" y="34" width="24" height="24">
<rect x="160" y="34" width="24" height="24" fill="#D9D9D9"/>
</mask>
<g mask="url(#mask13_251_1776)">
<path d="M175 55L169 52.9L164.35 54.7C164.017 54.8333 163.708 54.7958 163.425 54.5875C163.142 54.3792 163 54.1 163 53.75V39.75C163 39.5333 163.062 39.3417 163.188 39.175C163.312 39.0083 163.483 38.8833 163.7 38.8L169 37L175 39.1L179.65 37.3C179.983 37.1667 180.292 37.2042 180.575 37.4125C180.858 37.6208 181 37.9 181 38.25V52.25C181 52.4667 180.938 52.6583 180.812 52.825C180.688 52.9917 180.517 53.1167 180.3 53.2L175 55ZM174 52.55V40.85L170 39.45V51.15L174 52.55Z" fill="#0D0106"/>
</g>
</g>
<mask id="mask14_251_1776" style="mask-type:alpha" maskUnits="userSpaceOnUse" x="38" y="193" width="12" height="12">
<rect x="38" y="193" width="12" height="12" fill="#D9D9D9"/>
</mask>
<g mask="url(#mask14_251_1776)">
<path d="M45.5 203.5L42.5 202.45L40.175 203.35C40.0083 203.417 39.8542 203.398 39.7125 203.294C39.5708 203.19 39.5 203.05 39.5 202.875V195.875C39.5 195.767 39.5312 195.671 39.5938 195.587C39.6562 195.504 39.7417 195.442 39.85 195.4L42.5 194.5L45.5 195.55L47.825 194.65C47.9917 194.583 48.1458 194.602 48.2875 194.706C48.4292 194.81 48.5 194.95 48.5 195.125V202.125C48.5 202.233 48.4688 202.329 48.4062 202.412C48.3438 202.496 48.2583 202.558 48.15 202.6L45.5 203.5ZM45 202.275V196.425L43 195.725V201.575L45 202.275Z" fill="#FF5714"/>
</g>
</svg>
