<svg width="44" height="36" viewBox="0 0 44 36" fill="none" xmlns="http://www.w3.org/2000/svg">
<path d="M12 36C10.3333 36 8.91667 35.4167 7.75 34.25C6.58333 33.0833 6 31.6667 6 30H3C2.175 30 1.46875 29.7062 0.88125 29.1187C0.29375 28.5312 0 27.825 0 27V16H22V7C22 6.175 22.2938 5.46875 22.8813 4.88125C23.4688 4.29375 24.175 4 25 4H30.5V1.5C30.5 1.075 30.6437 0.71875 30.9312 0.43125C31.2188 0.14375 31.575 0 32 0H34C34.425 0 34.7813 0.14375 35.0688 0.43125C35.3563 0.71875 35.5 1.075 35.5 1.5V4H37.85C38.5 4 39.0875 4.18637 39.6125 4.5591C40.1375 4.93183 40.5 5.4288 40.7 6.05L43.85 15.5C43.9167 15.6667 43.9583 15.8258 43.975 15.9775C43.9917 16.1292 44 16.2867 44 16.45V30H38C38 31.6667 37.4167 33.0833 36.25 34.25C35.0833 35.4167 33.6667 36 32 36C30.3333 36 28.9167 35.4167 27.75 34.25C26.5833 33.0833 26 31.6667 26 30H18C18 31.6667 17.4167 33.0833 16.25 34.25C15.0833 35.4167 13.6667 36 12 36ZM12 33C12.85 33 13.5625 32.7125 14.1375 32.1375C14.7125 31.5625 15 30.85 15 30C15 29.15 14.7125 28.4375 14.1375 27.8625C13.5625 27.2875 12.85 27 12 27C11.15 27 10.4375 27.2875 9.8625 27.8625C9.2875 28.4375 9 29.15 9 30C9 30.85 9.2875 31.5625 9.8625 32.1375C10.4375 32.7125 11.15 33 12 33ZM32 33C32.85 33 33.5625 32.7125 34.1375 32.1375C34.7125 31.5625 35 30.85 35 30C35 29.15 34.7125 28.4375 34.1375 27.8625C33.5625 27.2875 32.85 27 32 27C31.15 27 30.4375 27.2875 29.8625 27.8625C29.2875 28.4375 29 29.15 29 30C29 30.85 29.2875 31.5625 29.8625 32.1375C30.4375 32.7125 31.15 33 32 33ZM25 16H40.85L37.85 7H25V16ZM0 14V12H2V6H0V4H20V6H18V12H20V14H0ZM4 12H9V6H4V12ZM11 12H16V6H11V12Z" fill="#FBFBFF"/>
</svg>
