<svg width="20" height="20" viewBox="0 0 20 20" fill="none" xmlns="http://www.w3.org/2000/svg">
<path d="M19.801 10.24C19.801 9.56459 19.7356 8.86744 19.6267 8.21387H10.1934V12.07H15.5963C15.3784 13.3118 14.6595 14.4011 13.592 15.0982L16.8163 17.6036C18.7117 15.8389 19.801 13.2682 19.801 10.24Z" fill="#FFFEFB"/>
<path d="M10.193 20.0002C12.8944 20.0002 15.1602 19.107 16.8159 17.582L13.5916 15.0984C12.6984 15.7084 11.5437 16.057 10.193 16.057C7.57866 16.057 5.37828 14.2923 4.5722 11.9395L1.26074 14.4884C2.96004 17.8652 6.40222 20.0002 10.193 20.0002Z" fill="#FFFEFB"/>
<path d="M4.57274 11.9168C4.15881 10.675 4.15881 9.32425 4.57274 8.08246L1.26128 5.51172C-0.154803 8.34389 -0.154803 11.6771 1.26128 14.4875L4.57274 11.9168Z" fill="#FFFEFB"/>
<path d="M10.193 3.96542C11.6091 3.94363 13.0034 4.48828 14.0273 5.46865L16.8813 2.59291C15.073 0.893603 12.6766 -0.0214057 10.193 0.000380227C6.40222 0.000380227 2.96004 2.1354 1.26074 5.51222L4.5722 8.08296C5.37828 5.70829 7.57866 3.96542 10.193 3.96542Z" fill="#FFFEFB"/>
</svg>
