<svg width="148" height="40" viewBox="0 0 148 40" fill="none" xmlns="http://www.w3.org/2000/svg">
<path d="M23 20L19 33H31L27 20H23Z" fill="#FF5714"/>
<mask id="mask0_171_1268" style="mask-type:alpha" maskUnits="userSpaceOnUse" x="0" y="0" width="40" height="40">
<rect width="40" height="40" fill="#D9D9D9"/>
</mask>
<g mask="url(#mask0_171_1268)">
<path d="M8.61112 33.3333V30.5556H11.1945L14.625 19.2083C14.8102 18.6158 15.1458 18.1366 15.632 17.7708C16.1181 17.4051 16.6667 17.2222 17.2778 17.2222H22.7222C23.3333 17.2222 23.8819 17.4051 24.368 17.7708C24.8542 18.1366 25.1898 18.6158 25.375 19.2083L28.8055 30.5556H31.3889V33.3333H8.61112ZM14.1389 30.5556H25.8611L22.6945 20H17.3055L14.1389 30.5556ZM18.6111 12.7778V5H21.3889V12.7778H18.6111ZM28.4445 16.875L26.4583 14.8889L31.9861 9.40279L33.9305 11.3472L28.4445 16.875ZM30.5556 24.7222V21.9445H38.3333V24.7222H30.5556ZM11.5555 16.875L6.06946 11.3472L8.01387 9.40279L13.5417 14.8889L11.5555 16.875ZM1.66667 24.7222V21.9445H9.44442V24.7222H1.66667Z" fill="#0D0106"/>
</g>
<path d="M62.448 24.888C62.448 26.8933 61.712 28.504 60.24 29.72C58.7467 30.9147 56.9333 31.512 54.8 31.512C52.9013 31.512 51.2267 30.9573 49.776 29.848C48.3253 28.7387 47.3227 27.224 46.768 25.304L49.584 24.152C49.776 24.8347 50.0427 25.4533 50.384 26.008C50.7253 26.5627 51.12 27.0427 51.568 27.448C52.0373 27.832 52.5493 28.1413 53.104 28.376C53.6587 28.5893 54.2453 28.696 54.864 28.696C56.208 28.696 57.3067 28.3547 58.16 27.672C59.0133 26.968 59.44 26.04 59.44 24.888C59.44 23.928 59.088 23.1067 58.384 22.424C57.7227 21.7627 56.4853 21.1227 54.672 20.504C52.8373 19.8427 51.696 19.3947 51.248 19.16C48.816 17.9227 47.6 16.0987 47.6 13.688C47.6 12.0027 48.272 10.5627 49.616 9.368C50.9813 8.17333 52.656 7.576 54.64 7.576C56.3893 7.576 57.904 8.024 59.184 8.92C60.464 9.79467 61.3173 10.8933 61.744 12.216L58.992 13.368C58.736 12.5147 58.224 11.8107 57.456 11.256C56.7093 10.68 55.792 10.392 54.704 10.392C53.552 10.392 52.5813 10.712 51.792 11.352C51.0027 11.9493 50.608 12.728 50.608 13.688C50.608 14.4773 50.9173 15.16 51.536 15.736C52.2187 16.312 53.7013 16.9947 55.984 17.784C58.3093 18.5733 59.9627 19.544 60.944 20.696C61.9467 21.8267 62.448 23.224 62.448 24.888ZM69.2875 9.912C69.2875 10.488 69.0848 10.9787 68.6795 11.384C68.2742 11.7893 67.7835 11.992 67.2075 11.992C66.6315 11.992 66.1408 11.7893 65.7355 11.384C65.3302 10.9787 65.1275 10.488 65.1275 9.912C65.1275 9.336 65.3302 8.84533 65.7355 8.44C66.1408 8.03467 66.6315 7.832 67.2075 7.832C67.7835 7.832 68.2742 8.03467 68.6795 8.44C69.0848 8.84533 69.2875 9.336 69.2875 9.912ZM68.6795 15.32V31H65.7355V15.32H68.6795ZM82.998 10.904V18.968H87.734C88.9287 18.968 89.942 18.584 90.774 17.816C91.606 17.0267 92.022 16.056 92.022 14.904C92.022 13.8373 91.6273 12.9093 90.838 12.12C90.07 11.3093 89.0993 10.904 87.926 10.904H82.998ZM82.998 31H80.054V8.088H87.862C89.846 8.088 91.5313 8.74933 92.918 10.072C94.326 11.3733 95.03 12.984 95.03 14.904C95.03 16.4827 94.5073 17.8907 93.462 19.128C92.438 20.344 91.1367 21.1227 89.558 21.464L89.494 21.56L95.926 30.872V31H92.438L86.262 21.72H82.998V31ZM104.77 31.512C102.466 31.512 100.567 30.7227 99.0735 29.144C97.5802 27.5653 96.8335 25.5707 96.8335 23.16C96.8335 20.7707 97.5588 18.7867 99.0095 17.208C100.46 15.608 102.316 14.808 104.578 14.808C106.903 14.808 108.748 15.5653 110.114 17.08C111.5 18.5733 112.194 20.6747 112.194 23.384L112.162 23.704H99.8415C99.8842 25.24 100.396 26.4773 101.378 27.416C102.359 28.3547 103.532 28.824 104.898 28.824C106.775 28.824 108.247 27.8853 109.314 26.008L111.938 27.288C111.234 28.6107 110.252 29.6453 108.994 30.392C107.756 31.1387 106.348 31.512 104.77 31.512ZM100.066 21.272H109.058C108.972 20.184 108.524 19.288 107.714 18.584C106.924 17.8587 105.858 17.496 104.514 17.496C103.404 17.496 102.444 17.8373 101.634 18.52C100.844 19.2027 100.322 20.12 100.066 21.272ZM114.886 15.32H117.702V17.496H117.83C118.278 16.728 118.96 16.088 119.878 15.576C120.816 15.064 121.787 14.808 122.79 14.808C124.71 14.808 126.182 15.3627 127.206 16.472C128.251 17.56 128.774 19.1173 128.774 21.144V31H125.83V21.336C125.766 18.776 124.475 17.496 121.958 17.496C120.784 17.496 119.803 17.976 119.014 18.936C118.224 19.8747 117.83 21.0053 117.83 22.328V31H114.886V15.32ZM139.27 31.512C136.966 31.512 135.067 30.7227 133.574 29.144C132.08 27.5653 131.334 25.5707 131.334 23.16C131.334 20.7707 132.059 18.7867 133.51 17.208C134.96 15.608 136.816 14.808 139.078 14.808C141.403 14.808 143.248 15.5653 144.614 17.08C146 18.5733 146.694 20.6747 146.694 23.384L146.662 23.704H134.342C134.384 25.24 134.896 26.4773 135.878 27.416C136.859 28.3547 138.032 28.824 139.398 28.824C141.275 28.824 142.747 27.8853 143.814 26.008L146.438 27.288C145.734 28.6107 144.752 29.6453 143.494 30.392C142.256 31.1387 140.848 31.512 139.27 31.512ZM134.566 21.272H143.558C143.472 20.184 143.024 19.288 142.214 18.584C141.424 17.8587 140.358 17.496 139.014 17.496C137.904 17.496 136.944 17.8373 136.134 18.52C135.344 19.2027 134.822 20.12 134.566 21.272Z" fill="#0D0106"/>
</svg>
