<svg width="214" height="40" viewBox="0 0 214 40" fill="none" xmlns="http://www.w3.org/2000/svg">
<path d="M23.5 20L19.5 33H31.5L27.5 20H23.5Z" fill="#FF5714"/>
<mask id="mask0_595_5300" style="mask-type:alpha" maskUnits="userSpaceOnUse" x="0" y="0" width="41" height="40">
<rect x="0.5" width="40" height="40" fill="#D9D9D9"/>
</mask>
<g mask="url(#mask0_595_5300)">
<path d="M9.11145 33.3333V30.5556H11.6948L15.1253 19.2083C15.3105 18.6158 15.6462 18.1366 16.1323 17.7708C16.6184 17.4051 17.167 17.2222 17.7781 17.2222H23.2225C23.8336 17.2222 24.3823 17.4051 24.8684 17.7708C25.3545 18.1366 25.6901 18.6158 25.8753 19.2083L29.3059 30.5556H31.8892V33.3333H9.11145ZM14.6392 30.5556H26.3615L23.1948 20H17.8059L14.6392 30.5556ZM19.1115 12.7778V5H21.8892V12.7778H19.1115ZM28.9448 16.875L26.9587 14.8889L32.4865 9.40279L34.4309 11.3472L28.9448 16.875ZM31.0559 24.7222V21.9445H38.8337V24.7222H31.0559ZM12.0559 16.875L6.56978 11.3472L8.5142 9.40279L14.042 14.8889L12.0559 16.875ZM2.16699 24.7222V21.9445H9.94474V24.7222H2.16699Z" fill="#0D0106"/>
</g>
<path d="M51.748 31H48.804V8.088H51.748V17.912H63.204V8.088H66.148V31H63.204V20.664H51.748V31ZM77.2695 31.512C74.9655 31.512 73.0668 30.7227 71.5735 29.144C70.0802 27.5653 69.3335 25.5707 69.3335 23.16C69.3335 20.7707 70.0588 18.7867 71.5095 17.208C72.9602 15.608 74.8162 14.808 77.0775 14.808C79.4028 14.808 81.2482 15.5653 82.6135 17.08C84.0002 18.5733 84.6935 20.6747 84.6935 23.384L84.6615 23.704H72.3415C72.3842 25.24 72.8962 26.4773 73.8775 27.416C74.8588 28.3547 76.0322 28.824 77.3975 28.824C79.2748 28.824 80.7468 27.8853 81.8135 26.008L84.4375 27.288C83.7335 28.6107 82.7522 29.6453 81.4935 30.392C80.2562 31.1387 78.8482 31.512 77.2695 31.512ZM72.5655 21.272H81.5575C81.4722 20.184 81.0242 19.288 80.2135 18.584C79.4242 17.8587 78.3575 17.496 77.0135 17.496C75.9042 17.496 74.9442 17.8373 74.1335 18.52C73.3442 19.2027 72.8215 20.12 72.5655 21.272ZM90.3298 8.088V31H87.3858V8.088H90.3298ZM101.597 28.824C103.005 28.824 104.189 28.2907 105.149 27.224C106.109 26.1787 106.589 24.824 106.589 23.16C106.589 21.5173 106.109 20.1627 105.149 19.096C104.189 18.0293 103.005 17.496 101.597 17.496C100.168 17.496 98.973 18.0293 98.013 19.096C97.0743 20.1627 96.605 21.5173 96.605 23.16C96.605 24.824 97.0743 26.1893 98.013 27.256C98.973 28.3013 100.168 28.824 101.597 28.824ZM102.077 31.512C100.925 31.512 99.869 31.2667 98.909 30.776C97.9703 30.2853 97.245 29.6347 96.733 28.824H96.605L96.733 31V37.912H93.789V15.32H96.605V17.496H96.733C97.245 16.6853 97.9703 16.0347 98.909 15.544C99.869 15.0533 100.925 14.808 102.077 14.808C104.146 14.808 105.896 15.6187 107.325 17.24C108.797 18.8827 109.533 20.856 109.533 23.16C109.533 25.4853 108.797 27.4587 107.325 29.08C105.896 30.7013 104.146 31.512 102.077 31.512ZM129.932 31.512C126.54 31.512 123.702 30.3707 121.42 28.088C119.158 25.8053 118.028 22.9573 118.028 19.544C118.028 16.1307 119.158 13.2933 121.42 11.032C123.681 8.728 126.518 7.576 129.932 7.576C133.388 7.576 136.193 8.824 138.348 11.32L136.236 13.368C134.593 11.384 132.492 10.392 129.932 10.392C127.393 10.392 125.27 11.2453 123.564 12.952C121.878 14.6373 121.036 16.8347 121.036 19.544C121.036 22.2533 121.878 24.4507 123.564 26.136C125.27 27.8427 127.393 28.696 129.932 28.696C132.598 28.696 134.913 27.576 136.876 25.336L139.02 27.416C137.932 28.7173 136.598 29.7307 135.02 30.456C133.441 31.16 131.745 31.512 129.932 31.512ZM148.363 31.512C146.059 31.512 144.161 30.7227 142.667 29.144C141.174 27.5653 140.427 25.5707 140.427 23.16C140.427 20.7707 141.153 18.7867 142.603 17.208C144.054 15.608 145.91 14.808 148.171 14.808C150.497 14.808 152.342 15.5653 153.707 17.08C155.094 18.5733 155.787 20.6747 155.787 23.384L155.755 23.704H143.435C143.478 25.24 143.99 26.4773 144.971 27.416C145.953 28.3547 147.126 28.824 148.491 28.824C150.369 28.824 151.841 27.8853 152.907 26.008L155.531 27.288C154.827 28.6107 153.846 29.6453 152.587 30.392C151.35 31.1387 149.942 31.512 148.363 31.512ZM143.659 21.272H152.651C152.566 20.184 152.118 19.288 151.307 18.584C150.518 17.8587 149.451 17.496 148.107 17.496C146.998 17.496 146.038 17.8373 145.227 18.52C144.438 19.2027 143.915 20.12 143.659 21.272ZM158.48 15.32H161.296V17.496H161.424C161.872 16.728 162.554 16.088 163.472 15.576C164.41 15.064 165.381 14.808 166.384 14.808C168.304 14.808 169.776 15.3627 170.8 16.472C171.845 17.56 172.368 19.1173 172.368 21.144V31H169.424V21.336C169.36 18.776 168.069 17.496 165.552 17.496C164.378 17.496 163.397 17.976 162.608 18.936C161.818 19.8747 161.424 21.0053 161.424 22.328V31H158.48V15.32ZM181.219 31.256C179.939 31.256 178.872 30.8613 178.019 30.072C177.187 29.2827 176.76 28.184 176.739 26.776V18.008H173.987V15.32H176.739V10.52H179.683V15.32H183.523V18.008H179.683V25.816C179.683 26.8613 179.885 27.576 180.291 27.96C180.696 28.3227 181.155 28.504 181.667 28.504C181.901 28.504 182.125 28.4827 182.339 28.44C182.573 28.376 182.787 28.3013 182.979 28.216L183.907 30.84C183.139 31.1173 182.243 31.256 181.219 31.256ZM193.207 31.512C190.903 31.512 189.004 30.7227 187.511 29.144C186.018 27.5653 185.271 25.5707 185.271 23.16C185.271 20.7707 185.996 18.7867 187.447 17.208C188.898 15.608 190.754 14.808 193.015 14.808C195.34 14.808 197.186 15.5653 198.551 17.08C199.938 18.5733 200.631 20.6747 200.631 23.384L200.599 23.704H188.279C188.322 25.24 188.834 26.4773 189.815 27.416C190.796 28.3547 191.97 28.824 193.335 28.824C195.212 28.824 196.684 27.8853 197.751 26.008L200.375 27.288C199.671 28.6107 198.69 29.6453 197.431 30.392C196.194 31.1387 194.786 31.512 193.207 31.512ZM188.503 21.272H197.495C197.41 20.184 196.962 19.288 196.151 18.584C195.362 17.8587 194.295 17.496 192.951 17.496C191.842 17.496 190.882 17.8373 190.071 18.52C189.282 19.2027 188.759 20.12 188.503 21.272ZM206.267 31H203.323V15.32H206.139V17.88H206.267C206.566 17.048 207.174 16.344 208.091 15.768C209.03 15.1707 209.947 14.872 210.843 14.872C211.697 14.872 212.422 15 213.019 15.256L212.123 18.104C211.761 17.9547 211.185 17.88 210.395 17.88C209.286 17.88 208.315 18.328 207.483 19.224C206.673 20.12 206.267 21.1653 206.267 22.36V31Z" fill="#0D0106"/>
</svg>
