<svg width="244" height="40" viewBox="0 0 244 40" fill="none" xmlns="http://www.w3.org/2000/svg">
<path d="M23 20L19 33H31L27 20H23Z" fill="#FF5714"/>
<mask id="mask0_465_3203" style="mask-type:alpha" maskUnits="userSpaceOnUse" x="0" y="0" width="40" height="40">
<rect width="40" height="40" fill="#D9D9D9"/>
</mask>
<g mask="url(#mask0_465_3203)">
<path d="M8.61112 33.3333V30.5556H11.1945L14.625 19.2083C14.8102 18.6158 15.1458 18.1366 15.632 17.7708C16.1181 17.4051 16.6667 17.2222 17.2778 17.2222H22.7222C23.3333 17.2222 23.8819 17.4051 24.368 17.7708C24.8542 18.1366 25.1898 18.6158 25.375 19.2083L28.8055 30.5556H31.3889V33.3333H8.61112ZM14.1389 30.5556H25.8611L22.6945 20H17.3055L14.1389 30.5556ZM18.6111 12.7778V5H21.3889V12.7778H18.6111ZM28.4445 16.875L26.4583 14.8889L31.9861 9.40279L33.9305 11.3472L28.4445 16.875ZM30.5556 24.7222V21.9445H38.3333V24.7222H30.5556ZM11.5555 16.875L6.06946 11.3472L8.01387 9.40279L13.5417 14.8889L11.5555 16.875ZM1.66667 24.7222V21.9445H9.44442V24.7222H1.66667Z" fill="#0D0106"/>
</g>
<path d="M51.248 21.72V31H48.304V8.088H56.112C58.096 8.088 59.7813 8.74933 61.168 10.072C62.576 11.3947 63.28 13.0053 63.28 14.904C63.28 16.8453 62.576 18.4667 61.168 19.768C59.8027 21.0693 58.1173 21.72 56.112 21.72H51.248ZM51.248 10.904V18.904H56.176C57.3493 18.904 58.32 18.5093 59.088 17.72C59.8773 16.9307 60.272 15.992 60.272 14.904C60.272 13.8373 59.8773 12.9093 59.088 12.12C58.32 11.3093 57.3493 10.904 56.176 10.904H51.248ZM79.302 31H76.486V28.824H76.358C75.91 29.592 75.2167 30.232 74.278 30.744C73.3607 31.256 72.4007 31.512 71.398 31.512C69.478 31.512 67.9953 30.968 66.95 29.88C65.926 28.7707 65.414 27.2027 65.414 25.176V15.32H68.358V24.984C68.422 27.544 69.7127 28.824 72.23 28.824C73.4033 28.824 74.3847 28.3547 75.174 27.416C75.9633 26.456 76.358 25.3147 76.358 23.992V15.32H79.302V31ZM94.7295 26.648C94.7295 28.0133 94.1322 29.1653 92.9375 30.104C91.7428 31.0427 90.2388 31.512 88.4255 31.512C86.8468 31.512 85.4602 31.1067 84.2655 30.296C83.0708 29.464 82.2175 28.376 81.7055 27.032L84.3295 25.912C84.7135 26.8507 85.2682 27.5867 85.9935 28.12C86.7402 28.632 87.5508 28.888 88.4255 28.888C89.3642 28.888 90.1428 28.6853 90.7615 28.28C91.4015 27.8747 91.7215 27.3947 91.7215 26.84C91.7215 25.8373 90.9535 25.1013 89.4175 24.632L86.7295 23.96C83.6788 23.192 82.1535 21.72 82.1535 19.544C82.1535 18.1147 82.7295 16.9733 83.8815 16.12C85.0548 15.2453 86.5482 14.808 88.3615 14.808C89.7482 14.808 90.9962 15.1387 92.1055 15.8C93.2362 16.4613 94.0255 17.3467 94.4735 18.456L91.8495 19.544C91.5508 18.8827 91.0602 18.3707 90.3775 18.008C89.7162 17.624 88.9695 17.432 88.1375 17.432C87.3695 17.432 86.6762 17.624 86.0575 18.008C85.4602 18.392 85.1615 18.8613 85.1615 19.416C85.1615 20.312 86.0042 20.952 87.6895 21.336L90.0575 21.944C93.1722 22.712 94.7295 24.28 94.7295 26.648ZM99.5923 26.2C99.5923 26.968 99.9123 27.608 100.552 28.12C101.214 28.632 101.982 28.888 102.856 28.888C104.094 28.888 105.192 28.4293 106.152 27.512C107.134 26.5947 107.624 25.5173 107.624 24.28C106.707 23.5547 105.427 23.192 103.784 23.192C102.59 23.192 101.587 23.48 100.776 24.056C99.9869 24.632 99.5923 25.3467 99.5923 26.2ZM103.4 14.808C105.576 14.808 107.294 15.3947 108.552 16.568C109.811 17.72 110.44 19.3093 110.44 21.336V31H107.624V28.824H107.496C106.28 30.616 104.659 31.512 102.632 31.512C100.904 31.512 99.4536 31 98.2803 29.976C97.1283 28.952 96.5523 27.672 96.5523 26.136C96.5523 24.5147 97.1603 23.224 98.3763 22.264C99.6136 21.304 101.256 20.824 103.304 20.824C105.054 20.824 106.494 21.144 107.624 21.784V21.112C107.624 20.088 107.219 19.224 106.408 18.52C105.598 17.7947 104.648 17.432 103.56 17.432C101.918 17.432 100.616 18.1253 99.6562 19.512L97.0643 17.88C98.4936 15.832 100.606 14.808 103.4 14.808ZM119.656 31.256C118.376 31.256 117.31 30.8613 116.456 30.072C115.624 29.2827 115.198 28.184 115.176 26.776V18.008H112.424V15.32H115.176V10.52H118.12V15.32H121.96V18.008H118.12V25.816C118.12 26.8613 118.323 27.576 118.728 27.96C119.134 28.3227 119.592 28.504 120.104 28.504C120.339 28.504 120.563 28.4827 120.776 28.44C121.011 28.376 121.224 28.3013 121.416 28.216L122.344 30.84C121.576 31.1173 120.68 31.256 119.656 31.256ZM132.304 31V8.088H140.592C142.405 8.088 143.963 8.68533 145.264 9.88C146.565 11.0533 147.216 12.536 147.216 14.328C147.216 16.5893 146.181 18.1787 144.112 19.096V19.224C145.285 19.608 146.224 20.28 146.928 21.24C147.632 22.1787 147.984 23.256 147.984 24.472C147.984 26.3493 147.301 27.9067 145.936 29.144C144.613 30.3813 142.981 31 141.04 31H132.304ZM135.248 10.904V17.912H140.592C141.637 17.912 142.512 17.56 143.216 16.856C143.92 16.1307 144.272 15.3093 144.272 14.392C144.272 13.496 143.931 12.6853 143.248 11.96C142.565 11.256 141.723 10.904 140.72 10.904H135.248ZM135.248 20.664V28.184H141.168C142.235 28.184 143.141 27.8107 143.888 27.064C144.613 26.3173 144.976 25.432 144.976 24.408C144.976 23.4053 144.603 22.5307 143.856 21.784C143.109 21.0373 142.171 20.664 141.04 20.664H135.248ZM152.936 26.2C152.936 26.968 153.256 27.608 153.896 28.12C154.557 28.632 155.325 28.888 156.2 28.888C157.437 28.888 158.536 28.4293 159.496 27.512C160.477 26.5947 160.968 25.5173 160.968 24.28C160.051 23.5547 158.771 23.192 157.128 23.192C155.933 23.192 154.931 23.48 154.12 24.056C153.331 24.632 152.936 25.3467 152.936 26.2ZM156.744 14.808C158.92 14.808 160.637 15.3947 161.896 16.568C163.155 17.72 163.784 19.3093 163.784 21.336V31H160.968V28.824H160.84C159.624 30.616 158.003 31.512 155.976 31.512C154.248 31.512 152.797 31 151.624 29.976C150.472 28.952 149.896 27.672 149.896 26.136C149.896 24.5147 150.504 23.224 151.72 22.264C152.957 21.304 154.6 20.824 156.648 20.824C158.397 20.824 159.837 21.144 160.968 21.784V21.112C160.968 20.088 160.563 19.224 159.752 18.52C158.941 17.7947 157.992 17.432 156.904 17.432C155.261 17.432 153.96 18.1253 153 19.512L150.408 17.88C151.837 15.832 153.949 14.808 156.744 14.808ZM167.105 15.32H169.921V17.496H170.049C170.497 16.728 171.179 16.088 172.097 15.576C173.035 15.064 174.006 14.808 175.009 14.808C176.929 14.808 178.401 15.3627 179.425 16.472C180.47 17.56 180.993 19.1173 180.993 21.144V31H178.049V21.336C177.985 18.776 176.694 17.496 174.177 17.496C173.003 17.496 172.022 17.976 171.233 18.936C170.443 19.8747 170.049 21.0053 170.049 22.328V31H167.105V15.32ZM189.844 31.256C188.564 31.256 187.497 30.8613 186.644 30.072C185.812 29.2827 185.385 28.184 185.364 26.776V18.008H182.612V15.32H185.364V10.52H188.308V15.32H192.148V18.008H188.308V25.816C188.308 26.8613 188.51 27.576 188.916 27.96C189.321 28.3227 189.78 28.504 190.292 28.504C190.526 28.504 190.75 28.4827 190.964 28.44C191.198 28.376 191.412 28.3013 191.604 28.216L192.532 30.84C191.764 31.1173 190.868 31.256 189.844 31.256ZM208.708 31H205.892V28.824H205.764C205.316 29.592 204.623 30.232 203.684 30.744C202.767 31.256 201.807 31.512 200.804 31.512C198.884 31.512 197.402 30.968 196.356 29.88C195.332 28.7707 194.82 27.2027 194.82 25.176V15.32H197.764V24.984C197.828 27.544 199.119 28.824 201.636 28.824C202.81 28.824 203.791 28.3547 204.58 27.416C205.37 26.456 205.764 25.3147 205.764 23.992V15.32H208.708V31ZM214.28 26.2C214.28 26.968 214.6 27.608 215.24 28.12C215.901 28.632 216.669 28.888 217.544 28.888C218.781 28.888 219.88 28.4293 220.84 27.512C221.821 26.5947 222.312 25.5173 222.312 24.28C221.394 23.5547 220.114 23.192 218.472 23.192C217.277 23.192 216.274 23.48 215.464 24.056C214.674 24.632 214.28 25.3467 214.28 26.2ZM218.088 14.808C220.264 14.808 221.981 15.3947 223.24 16.568C224.498 17.72 225.128 19.3093 225.128 21.336V31H222.312V28.824H222.184C220.968 30.616 219.346 31.512 217.32 31.512C215.592 31.512 214.141 31 212.968 29.976C211.816 28.952 211.24 27.672 211.24 26.136C211.24 24.5147 211.848 23.224 213.064 22.264C214.301 21.304 215.944 20.824 217.992 20.824C219.741 20.824 221.181 21.144 222.312 21.784V21.112C222.312 20.088 221.906 19.224 221.096 18.52C220.285 17.7947 219.336 17.432 218.248 17.432C216.605 17.432 215.304 18.1253 214.344 19.512L211.752 17.88C213.181 15.832 215.293 14.808 218.088 14.808ZM228.448 15.32H231.264V17.496H231.392C231.84 16.728 232.523 16.088 233.44 15.576C234.379 15.064 235.35 14.808 236.352 14.808C238.272 14.808 239.744 15.3627 240.768 16.472C241.814 17.56 242.336 19.1173 242.336 21.144V31H239.392V21.336C239.328 18.776 238.038 17.496 235.52 17.496C234.347 17.496 233.366 17.976 232.576 18.936C231.787 19.8747 231.392 21.0053 231.392 22.328V31H228.448V15.32Z" fill="#0D0106"/>
</svg>
