<svg width="35" height="34" viewBox="0 0 35 34" fill="none" xmlns="http://www.w3.org/2000/svg">
<g clip-path="url(#clip0_862_3518)">
<path d="M34.5 0H0.5V34H34.5V0Z" fill="#78BC21"/>
<path d="M5.60938 28.9024L7.27479 22.9874C6.20383 21.168 5.63996 19.098 5.63996 16.9714C5.63996 10.4237 10.9669 5.09668 17.5147 5.09668C24.0624 5.09668 29.3893 10.4237 29.3893 16.9714C29.3893 23.5191 24.0624 28.8461 17.5147 28.8461C15.4744 28.8461 13.4767 28.3239 11.7093 27.3322L5.60938 28.9024ZM12.0212 25.1719L12.3847 25.3938C13.9256 26.3345 15.6995 26.8318 17.5147 26.8318C22.9517 26.8318 27.375 22.4084 27.375 16.9714C27.375 11.5344 22.9517 7.11103 17.5147 7.11103C12.0777 7.11103 7.65431 11.5344 7.65431 16.9714C7.65431 18.8659 8.19274 20.7056 9.21125 22.2916L9.45603 22.6727L8.49698 26.0791L12.0212 25.1719Z" fill="white"/>
<path d="M14.1797 11.4448L13.4092 11.4028C13.1671 11.3896 12.9297 11.4704 12.7468 11.6293C12.3733 11.9537 11.776 12.5809 11.5925 13.3981C11.3189 14.6166 11.7417 16.1087 12.836 17.6008C13.9302 19.0929 15.9694 21.4803 19.5753 22.4999C20.7373 22.8285 21.6513 22.607 22.3566 22.1559C22.9152 21.7986 23.3002 21.2251 23.439 20.5768L23.562 20.0022C23.6011 19.8195 23.5083 19.6342 23.3387 19.556L20.7346 18.3557C20.5655 18.2778 20.3651 18.327 20.2514 18.4744L19.2291 19.7997C19.1518 19.8998 19.0196 19.9395 18.9003 19.8976C18.2002 19.6515 15.855 18.6693 14.5682 16.1906C14.5124 16.0831 14.5263 15.9526 14.6055 15.861L15.5825 14.7307C15.6823 14.6153 15.7075 14.453 15.6475 14.3127L14.525 11.6866C14.4653 11.5468 14.3314 11.453 14.1797 11.4448Z" fill="white"/>
</g>
<defs>
<clipPath id="clip0_862_3518">
<rect x="0.5" width="34" height="34" rx="17" fill="white"/>
</clipPath>
</defs>
</svg>
